<svg width="73" height="100" viewBox="0 0 73 100" fill="none" xmlns="http://www.w3.org/2000/svg">
<path d="M36.5 99C27.0848 99 18.0553 95.2919 11.3977 88.6914C4.74017 82.0909 1 73.1386 1 63.8041V12.0457L36.5 1L72 12.0457V63.8041C72 68.4261 71.0818 73.0028 69.2977 77.273C67.5137 81.5432 64.8988 85.4231 61.6023 88.6914C58.3058 91.9596 54.3923 94.5521 50.0853 96.3209C45.7782 98.0896 41.1619 99 36.5 99V99Z" fill="white"/>
<path fill-rule="evenodd" clip-rule="evenodd" d="M36.2029 0.0451526C36.3964 -0.0150509 36.6036 -0.0150509 36.7971 0.0451526L72.2971 11.0908C72.7152 11.2209 73 11.6078 73 12.0457V63.8041C73 68.5586 72.0554 73.2664 70.2204 77.6585C68.3854 82.0506 65.6961 86.0408 62.3064 89.4015C58.9166 92.7622 54.8929 95.4276 50.4651 97.2459C46.0374 99.0642 41.2921 100 36.5 100C26.8224 100 17.5394 96.1886 10.6937 89.4015C3.84763 82.6141 0 73.4066 0 63.8041V12.0457C0 11.6078 0.284832 11.2209 0.702903 11.0908L36.2029 0.0451526ZM36.5 98C41.0318 98 45.519 97.115 49.7054 95.3958C53.8917 93.6766 57.695 91.157 60.8982 87.9812C64.1015 84.8054 66.6419 81.0357 68.375 76.8875C70.1081 72.7393 71 68.2936 71 63.8041V12.7818L36.5 2.04729L2 12.7818V63.8041C2 72.8706 5.6327 81.5676 12.1018 87.9812C18.5711 94.3952 27.3473 98 36.5 98Z" fill="black"/>
<path d="M11 22V21.2308L12 21" fill="white"/>
<path fill-rule="evenodd" clip-rule="evenodd" d="M12.2249 21.9744L11.2249 22.2052L11.1775 22H10V20.4353L11.7751 20.0256L12.2249 21.9744Z" fill="black"/>
<path d="M16 19.2855L35.8703 13L58 20" fill="white"/>
<path fill-rule="evenodd" clip-rule="evenodd" d="M35.8703 11.9512L37.2257 12.3799L36.6226 14.2868L35.8703 14.0488L35.2256 14.2528L34.6224 12.3459L35.8703 11.9512ZM30.4947 15.7493L28.6022 16.3479L27.999 14.4411L29.8915 13.8424L30.4947 15.7493ZM43.9991 16.6201L41.8914 15.9534L42.4945 14.0465L44.6023 14.7133L43.9991 16.6201ZM23.8713 17.8444L21.9787 18.4431L21.3755 16.5362L23.2681 15.9376L23.8713 17.8444ZM51.3757 18.9535L49.2679 18.2868L49.8711 16.3799L51.9789 17.0466L51.3757 18.9535ZM17.2478 19.9396L16.3016 20.2389L15.6984 18.332L16.6446 18.0327L17.2478 19.9396ZM57.6984 20.9534L56.6445 20.6201L57.2477 18.7132L58.3015 19.0466L57.6984 20.9534Z" fill="black"/>
<path d="M61 21L62 21.2308V22" fill="white"/>
<path fill-rule="evenodd" clip-rule="evenodd" d="M61.7751 22.2052L60.7751 21.9744L61.2249 20.0256L63 20.4353V22H61.8225L61.7751 22.2052Z" fill="black"/>
<path d="M62 27.5298V59.7731C62 66.4637 59.3134 72.8802 54.5312 77.6112C49.749 82.3422 43.263 85 36.5 85C29.737 85 23.251 82.3422 18.4688 77.6112C13.6866 72.8802 11 66.4637 11 59.7731V25" fill="white"/>
<path fill-rule="evenodd" clip-rule="evenodd" d="M10 25.9934V25H12V25.9934H10ZM63 27.5298V28.451H61V27.5298H63ZM10 32.9481V30.9612H12V32.9481H10ZM63 33.0573V34.8996H61V33.0573H63ZM10 39.9027V37.9158H12V39.9027H10ZM63 39.506V41.3483H61V39.506H63ZM10 46.8573V44.8704H12V46.8573H10ZM63 45.9546V47.797H61V45.9546H63ZM10 53.8119V51.825H12V53.8119H10ZM63 52.4033V54.2456H61V52.4033H63ZM10 59.7731V58.7797H12V59.7731C12 60.0762 12.0057 60.3787 12.0172 60.6805L10.0186 60.7562C10.0062 60.4292 10 60.1015 10 59.7731ZM63 58.8519V59.7731C63 60.1015 62.9938 60.4292 62.9814 60.7562L60.9828 60.6805C60.9943 60.3787 61 60.0762 61 59.7731V58.8519H63ZM62.3328 65.6218C62.185 66.2611 62.0132 66.8939 61.818 67.5189L59.9089 66.9226C60.0892 66.3456 60.2477 65.7614 60.3841 65.1714L62.3328 65.6218ZM11.1821 67.5189C10.9868 66.8939 10.815 66.2611 10.6673 65.6218L12.6159 65.1714C12.7523 65.7614 12.9108 66.3456 13.0911 66.9226L11.1821 67.5189ZM14.0714 73.7419C13.7193 73.1881 13.3886 72.6221 13.08 72.0451L14.8435 71.1017C15.1285 71.6346 15.4339 72.1573 15.7591 72.6688L14.0714 73.7419ZM59.92 72.0451C59.6114 72.6221 59.2807 73.1881 58.9286 73.7419L57.2409 72.6688C57.5661 72.1573 57.8715 71.6345 58.1565 71.1017L59.92 72.0451ZM17.7655 78.3221C17.5321 78.0913 17.3036 77.8565 17.0799 77.6181L18.5385 76.2497C18.7452 76.47 18.9564 76.6869 19.1721 76.9003C19.3891 77.115 19.6098 77.3253 19.8341 77.5311L18.4817 79.0046C18.2391 78.782 18.0003 78.5544 17.7655 78.3221ZM55.9201 77.6181C55.6964 77.8565 55.4679 78.0913 55.2345 78.3221C54.9997 78.5544 54.7609 78.782 54.5183 79.0046L53.1659 77.5311C53.3902 77.3253 53.6109 77.115 53.8279 76.9003C54.0436 76.6869 54.2548 76.47 54.4615 76.2497L55.9201 77.6181ZM24.1343 82.9696C23.5502 82.6646 22.9772 82.3378 22.4165 81.9897L23.4715 80.2906C23.9899 80.6125 24.5198 80.9147 25.0599 81.1967L24.1343 82.9696ZM50.5835 81.9897C50.0228 82.3378 49.4498 82.6646 48.8657 82.9696L47.9401 81.1967C48.4802 80.9147 49.0101 80.6125 49.5285 80.2906L50.5835 81.9897ZM30.6155 85.3453C29.9715 85.2001 29.334 85.0314 28.7042 84.8395L29.2871 82.9263C29.8697 83.1038 30.4595 83.26 31.0553 83.3943L30.6155 85.3453ZM44.2958 84.8395C43.666 85.0314 43.0285 85.2001 42.3845 85.3453L41.9447 83.3943C42.5405 83.26 43.1303 83.1038 43.7129 82.9263L44.2958 84.8395ZM36.5 86C36.1698 86 35.8402 85.9939 35.5114 85.9818L35.5851 83.9831C35.8894 83.9944 36.1944 84 36.5 84C36.8056 84 37.1106 83.9944 37.4149 83.9831L37.4886 85.9818C37.1598 85.9939 36.8302 86 36.5 86Z" fill="black"/>
</svg>
