<svg width="100" height="100" viewBox="0 0 100 100" fill="none" xmlns="http://www.w3.org/2000/svg">
<g clip-path="url(#clip0_435_1831)">
<path d="M37.26 2.33714C37.585 2.21034 37.9121 2.09304 38.24 1.97998C38.0013 2.0624 37.763 2.14799 37.5253 2.23675" fill="white"/>
<path d="M37.26 2.33714C37.585 2.21034 37.9121 2.09304 38.24 1.97998C38.0013 2.0624 37.763 2.14799 37.5253 2.23675" stroke="black" stroke-width="2"/>
<path d="M27.7781 6.88C19.4087 11.1866 12.448 17.7759 7.71221 25.8753C2.97641 33.9747 0.661841 43.2484 1.03991 52.609C1.41797 61.9696 4.473 71.029 9.84676 78.7249C15.2205 86.4209 22.6902 92.4343 31.38 96.06" stroke="black" stroke-width="2" stroke-dasharray="2.04 10.2"/>
<path d="M36.28 97.04C36.6047 97.1393 36.9313 97.2355 37.26 97.3285L36.28 97.04Z" fill="white"/>
<path d="M36.28 97.04C36.6047 97.1393 36.9313 97.2355 37.26 97.3285" stroke="black" stroke-width="2"/>
<path d="M95.1593 30.9271C94.5407 29.4611 93.8542 28.0332 93.0998 26.6433C92.723 25.9494 92.3307 25.2654 91.923 24.5913C91.106 23.2451 90.2273 21.9418 89.2866 20.6816C83.1135 12.4007 74.4893 6.28364 64.6432 3.2021C63.112 2.72519 61.5499 2.32295 59.9568 1.99539C58.3533 1.66723 56.7343 1.42036 55.1059 1.25571C53.4434 1.08603 51.7733 1.00068 50.1022 1C49.364 1 48.6258 1.02325 47.8982 1.056C47.6873 1.06551 47.4764 1.07502 47.2655 1.0877C46.6412 1.12363 46.0204 1.17083 45.4031 1.2293C45.1195 1.25677 44.8379 1.28953 44.5595 1.32228C44.1054 1.37301 43.6523 1.43042 43.2002 1.49452C42.8448 1.54524 42.4895 1.60019 42.1362 1.65725C41.8567 1.70269 41.5794 1.75552 41.301 1.80624C40.5681 1.94149 39.8394 2.08943 39.1181 2.25638C38.9663 2.29125 38.8144 2.32507 38.6636 2.36205C38.1933 2.47617 37.7251 2.59346 37.2611 2.72026C54.7938 6.45665 71.3553 22.4504 71.3553 50C71.3553 77.5496 54.7938 93.5444 37.26 97.2818C37.7226 97.4079 38.1891 97.527 38.6594 97.639C38.8123 97.676 38.9662 97.7098 39.1202 97.7447C39.838 97.9095 40.5625 98.0585 41.2936 98.1916C41.5741 98.2434 41.8536 98.2973 42.1372 98.3428C42.4905 98.4009 42.8448 98.4484 43.2002 98.5044C43.653 98.5685 44.1071 98.6263 44.5627 98.6777C44.8421 98.7105 45.1216 98.7422 45.4063 98.7696C46.0264 98.8288 46.6493 98.8764 47.2749 98.9123C47.4859 98.9236 47.6968 98.9341 47.9077 98.944C48.6395 98.9768 49.3724 99 50.1127 99C60.9554 99.0031 71.4915 95.3941 80.0633 88.7408C88.6351 82.0874 94.7562 72.7674 97.4635 62.2468C97.6646 61.4635 97.8466 60.6731 98.0097 59.8757C98.3367 58.2688 98.5831 56.6465 98.7479 55.015C98.9161 53.35 99.0002 51.6777 99 50.0042C99.0099 43.4514 97.7038 36.9636 95.1593 30.9271Z" fill="white" stroke="black" stroke-width="2" stroke-linecap="round" stroke-linejoin="round"/>
</g>
<defs>
<clipPath id="clip0_435_1831">
<rect width="100" height="100" fill="white"/>
</clipPath>
</defs>
</svg>
