<svg width="107" height="101" viewBox="0 0 107 101" fill="none" xmlns="http://www.w3.org/2000/svg">
<path d="M29.1943 66.1704C28.8685 66.2299 28.5437 66.2893 28.2218 66.3509Z" fill="white"/>
<path fill-rule="evenodd" clip-rule="evenodd" d="M28.0355 65.3762C28.362 65.3138 28.6906 65.2536 29.0162 65.1942L29.3726 67.1466C29.0466 67.2061 28.7256 67.2649 28.4083 67.3256L28.0355 65.3762Z" fill="black"/>
<path fill-rule="evenodd" clip-rule="evenodd" d="M80.2692 66.1704C80.6344 66.2445 80.9966 66.3201 81.356 66.3971L80.9402 68.3377C80.5879 68.2622 80.2327 68.1881 79.8745 68.1154L80.2692 66.1704ZM22.1679 66.9652C22.4946 66.886 22.824 66.8081 23.1561 66.7313L23.6028 68.6651C23.2776 68.7402 22.9552 68.8165 22.6357 68.894L22.1679 66.9652ZM86.7414 67.7188C87.4692 67.9223 88.1808 68.1323 88.8753 68.3487L88.285 70.2435C87.6097 70.0331 86.9168 69.8286 86.2071 69.6301L86.7414 67.7188ZM15.3399 68.9393C15.9696 68.7233 16.6152 68.5128 17.276 68.3081L17.8633 70.2039C17.2207 70.403 16.594 70.6073 15.9839 70.8166L15.3399 68.9393ZM94.1198 70.2388C94.83 70.5353 95.5136 70.8402 96.1691 71.1532L95.3141 72.9442C94.6903 72.6464 94.0369 72.3549 93.3551 72.0702L94.1198 70.2388ZM8.74034 71.7095C9.33151 71.403 9.94869 71.1037 10.5906 70.8119L11.4119 72.6187C10.799 72.8973 10.2126 73.1817 9.65374 73.4715L8.74034 71.7095ZM101.054 74.0172C101.705 74.4967 102.301 74.9917 102.837 75.5019L101.468 76.9391C101 76.4932 100.469 76.0512 99.8772 75.615L101.054 74.0172ZM2.77309 75.9226C3.24695 75.4331 3.77531 74.9575 4.35346 74.496L5.59164 76.047C5.07177 76.462 4.60738 76.8812 4.19901 77.303L2.77309 75.9226ZM105.922 80.6534C106 81.0733 106.04 81.4982 106.04 81.9269C106.04 82.331 106.005 82.7318 105.935 83.1283L103.98 82.7838C104.031 82.4993 104.056 82.2138 104.056 81.9269C104.056 81.6226 104.027 81.3199 103.971 81.0183L105.922 80.6534ZM0 81.9207C0 81.529 0.0334831 81.1403 0.0992466 80.7557L2.05553 81.0901C2.0084 81.3658 1.98466 81.6425 1.98466 81.9207C1.98466 82.2076 2.00991 82.4932 2.06005 82.7777L0.105518 83.1222C0.0356169 82.7256 0 82.3248 0 81.9207ZM4.56462 89.5149C3.96033 89.0455 3.40788 88.5614 2.91219 88.063L4.31943 86.6635C4.74871 87.0952 5.23653 87.5238 5.78217 87.9476L4.56462 89.5149ZM103.128 88.0687C102.632 88.567 102.079 89.051 101.475 89.5203L100.258 87.9527C100.804 87.529 101.291 87.1005 101.721 86.669L103.128 88.0687ZM11.0387 93.2359C10.3725 92.9416 9.7317 92.6395 9.11775 92.3299L10.0114 90.5578C10.5932 90.8512 11.2033 91.1389 11.8406 91.4205L11.0387 93.2359ZM96.9216 92.3343C96.3076 92.6438 95.6668 92.9457 95.0006 93.2399L94.199 91.4243C94.8364 91.1429 95.4465 90.8553 96.0283 90.5621L96.9216 92.3343ZM17.9571 95.748C17.275 95.5438 16.6084 95.3337 15.958 95.1177L16.5836 93.2342C17.2145 93.4437 17.8623 93.648 18.5263 93.8467L17.9571 95.748ZM90.0812 95.1208C89.4309 95.3366 88.7642 95.5467 88.0821 95.7508L87.5133 93.8494C88.1773 93.6508 88.8251 93.4466 89.456 93.2372L90.0812 95.1208ZM25.0537 97.537C24.3626 97.3916 23.6822 97.2409 23.0129 97.0851L23.4628 95.1521C24.1181 95.3046 24.7847 95.4523 25.4624 95.5949L25.0537 97.537ZM83.0264 97.0871C82.3571 97.2428 81.6767 97.3934 80.9856 97.5388L80.5772 95.5966C81.2548 95.4541 81.9215 95.3065 82.5767 95.1541L83.0264 97.0871ZM32.251 98.8025C31.5566 98.7026 30.8698 98.5978 30.1911 98.4882L30.5073 96.5289C31.1747 96.6367 31.8503 96.7398 32.5337 96.8381L32.251 98.8025ZM75.8484 98.4894C75.1697 98.5989 74.4829 98.7036 73.7885 98.8035L73.506 96.8391C74.1894 96.7408 74.8649 96.6378 75.5324 96.5301L75.8484 98.4894ZM39.4978 99.6404C38.8016 99.5786 38.1111 99.5122 37.4266 99.4412L37.6312 97.4672C38.306 97.5371 38.9867 97.6026 39.6732 97.6635L39.4978 99.6404ZM68.6132 99.4418C67.9286 99.5127 67.2382 99.5791 66.5421 99.6408L66.3668 97.6639C67.0532 97.603 67.7339 97.5376 68.4086 97.4677L68.6132 99.4418ZM46.7714 100.104C46.0743 100.077 45.3813 100.045 44.6929 100.008L44.7983 98.0261C45.4778 98.0623 46.1617 98.094 46.8499 98.1212L46.7714 100.104ZM61.3472 100.008C60.6587 100.045 59.9659 100.077 59.2688 100.104L59.1903 98.1213C59.8785 98.0941 60.5624 98.0624 61.2418 98.0263L61.3472 100.008ZM53.0202 100.227C52.6711 100.227 52.3228 100.226 51.9753 100.224L51.9882 98.2392C52.3314 98.2414 52.6754 98.2426 53.0202 98.2426C53.365 98.2426 53.709 98.2414 54.0522 98.2392L54.0651 100.224C53.7176 100.226 53.3693 100.227 53.0202 100.227Z" fill="black"/>
<path d="M77.8186 66.3509C77.4964 66.289 77.1722 66.2288 76.8461 66.1704Z" fill="white"/>
<path fill-rule="evenodd" clip-rule="evenodd" d="M77.0211 65.1936C77.3513 65.2528 77.6795 65.3137 78.0058 65.3764L77.6314 67.3254C77.3133 67.2643 76.9932 67.2049 76.6711 67.1472L77.0211 65.1936Z" fill="black"/>
<path d="M34.0567 72.0054L33.6347 72.1097C33.4495 72.1535 33.2661 72.1984 33.0842 72.2443" fill="white"/>
<path fill-rule="evenodd" clip-rule="evenodd" d="M33.4014 71.1451L33.8187 71.042L34.295 72.9687L33.8633 73.0754C33.6829 73.1181 33.5042 73.1617 33.3273 73.2064L32.8414 71.2821C33.0265 71.2354 33.2132 71.1897 33.4014 71.1451Z" fill="black"/>
<path fill-rule="evenodd" clip-rule="evenodd" d="M76.3513 72.0266C76.6458 72.1143 76.9352 72.2037 77.2192 72.2948L76.6128 74.1846C76.3426 74.0979 76.0666 74.0126 75.7851 73.9288L76.3513 72.0266ZM26.7685 73.419C27.1975 73.2336 27.645 73.0534 28.11 72.8787L28.8082 74.7365C28.371 74.9008 27.9533 75.069 27.5558 75.2408L26.7685 73.419ZM81.4712 73.9884C82.0595 74.2828 82.6059 74.5902 83.1054 74.9103L82.0344 76.5812C81.6018 76.304 81.1175 76.0307 80.5829 75.7631L81.4712 73.9884ZM20.4221 79.8476C20.4221 79.2313 20.5658 78.6383 20.8261 78.0787L22.6256 78.9157C22.4754 79.2386 22.4068 79.5472 22.4068 79.8476C22.4068 80.068 22.4436 80.2908 22.5206 80.519L20.6403 81.1539C20.4978 80.7318 20.4221 80.2949 20.4221 79.8476ZM86.4202 78.6915C86.532 79.0672 86.5907 79.4537 86.5907 79.8476C86.5907 80.2949 86.5151 80.7318 86.3726 81.1539L84.4922 80.519C84.5693 80.2908 84.6061 80.068 84.6061 79.8476C84.6061 79.653 84.5774 79.4571 84.518 79.2577L86.4202 78.6915ZM26.4503 86.1379C25.7717 85.834 25.1404 85.5156 24.5622 85.183L25.5516 83.4626C26.0642 83.7574 26.6349 84.046 27.2614 84.3265L26.4503 86.1379ZM82.4506 85.183C81.8724 85.5156 81.2412 85.834 80.5625 86.1379L79.7514 84.3265C80.3779 84.046 80.9486 83.7574 81.4612 83.4626L82.4506 85.183ZM33.306 88.3769C32.6227 88.2131 31.9605 88.041 31.3212 87.861L31.8592 85.9506C32.472 86.1232 33.109 86.2888 33.7685 86.4469L33.306 88.3769ZM75.6916 87.861C75.0523 88.041 74.3902 88.2131 73.7068 88.3769L73.2443 86.4469C73.9039 86.2888 74.5408 86.1232 75.1537 85.9506L75.6916 87.861ZM40.3298 89.6618C39.6459 89.5701 38.9742 89.4714 38.3155 89.3661L38.629 87.4063C39.2707 87.509 39.9259 87.6052 40.5936 87.6948L40.3298 89.6618ZM68.6973 89.3661C68.0387 89.4714 67.3669 89.5701 66.683 89.6618L66.4192 87.6948C67.087 87.6052 67.7422 87.509 68.3839 87.4063L68.6973 89.3661ZM47.415 90.3301C46.7322 90.291 46.0569 90.2454 45.3898 90.1936L45.5435 88.2149C46.1971 88.2656 46.859 88.3103 47.5285 88.3487L47.415 90.3301ZM61.6231 90.1936C60.9559 90.2454 60.2806 90.291 59.5978 90.3301L59.4843 88.3487C60.1538 88.3103 60.8158 88.2656 61.4694 88.2149L61.6231 90.1936ZM53.5064 90.5023C53.1659 90.5023 52.8267 90.5007 52.4887 90.4976L52.5072 88.513C52.839 88.5161 53.1721 88.5176 53.5064 88.5176C53.8408 88.5176 54.1739 88.5161 54.5057 88.513L54.5241 90.4976C54.1862 90.5007 53.8469 90.5023 53.5064 90.5023Z" fill="black"/>
<path d="M72.9562 72.238C72.6371 72.1587 72.3129 72.0812 71.9838 72.0054Z" fill="white"/>
<path fill-rule="evenodd" clip-rule="evenodd" d="M72.2064 71.0383C72.541 71.1154 72.8706 71.1942 73.1954 71.2749L72.717 73.2011C72.4034 73.1232 72.0848 73.0469 71.761 72.9724L72.2064 71.0383Z" fill="black"/>
<path d="M53.5065 1.98645C53.5065 1.98645 27.2494 40.4247 27.2494 54.7743C27.2494 61.6655 30.0158 68.2745 34.9399 73.1473C39.8641 78.0201 46.5427 80.7577 53.5065 80.7577C60.4703 80.7577 67.1489 78.0201 72.073 73.1473C76.9972 68.2745 79.7635 61.6655 79.7635 54.7743C79.7635 40.4236 53.5065 1.98645 53.5065 1.98645Z" fill="white"/>
<path fill-rule="evenodd" clip-rule="evenodd" d="M54.3259 1.42669L53.5065 1.98643L52.6871 1.4267L53.5065 0.227173L54.3259 1.42669ZM53.5065 3.76277C53.413 3.90265 53.3122 4.05379 53.2044 4.21579C52.4889 5.29115 51.4661 6.84435 50.2385 8.75336C47.7826 12.5722 44.5096 17.811 41.238 23.4943C37.9645 29.1809 34.7021 35.2959 32.2611 40.8705C29.8017 46.487 28.2417 51.4125 28.2417 54.7742C28.2417 61.3989 30.901 67.7544 35.6379 72.4419C40.3752 77.1298 46.8025 79.7653 53.5065 79.7653C60.2104 79.7653 66.6378 77.1298 71.375 72.4419C76.112 67.7544 78.7712 61.3989 78.7712 54.7742C78.7712 51.4122 77.2113 46.4866 74.7519 40.87C72.3108 35.2954 69.0485 29.1805 65.775 23.4939C62.5034 17.8106 59.2304 12.572 56.7745 8.75322C55.5469 6.84425 54.524 5.29109 53.8086 4.21576C53.7008 4.05377 53.6 3.90264 53.5065 3.76277ZM76.5699 40.0739C79.0337 45.7005 80.7559 50.9609 80.7559 54.7742C80.7559 61.932 77.8824 68.7945 72.771 73.8526C67.66 78.9104 60.7301 81.75 53.5065 81.75C46.2828 81.75 39.353 78.9104 34.2419 73.8526C29.1305 68.7945 26.2571 61.932 26.2571 54.7742C26.2571 50.9612 27.9793 45.7008 30.4431 40.0744C32.9252 34.406 36.2271 28.2208 39.5179 22.5042C42.8106 16.7843 46.1018 11.5166 48.5692 7.67987C49.8031 5.76109 50.8316 4.19919 51.5521 3.1164C51.9123 2.57498 52.1956 2.15329 52.389 1.8666C52.4857 1.72325 52.56 1.61364 52.6102 1.53969L52.6673 1.45574L52.6871 1.4267C52.6873 1.42633 52.6871 1.4267 53.5065 1.98643C54.3259 1.42669 54.3256 1.42632 54.3259 1.42669L54.3457 1.45573L54.4028 1.53968C54.453 1.61363 54.5272 1.72323 54.624 1.86658C54.8174 2.15326 55.1006 2.57495 55.4609 3.11635C56.1813 4.19911 57.2098 5.76097 58.4438 7.67971C60.9111 11.5164 64.2024 16.7839 67.495 22.5038C70.7858 28.2204 74.0877 34.4055 76.5699 40.0739Z" fill="black"/>
</svg>
