<svg width="100" height="100" viewBox="0 0 100 100" fill="none" xmlns="http://www.w3.org/2000/svg">
<path d="M2.95996 51.96C2.97215 52.2866 2.98806 52.6133 3.00769 52.94Z" fill="white"/>
<path fill-rule="evenodd" clip-rule="evenodd" d="M2.92269 50.9607C3.47459 50.9401 3.93869 51.3708 3.95928 51.9227C3.97118 52.2418 3.98672 52.5609 4.0059 52.88C4.03904 53.4313 3.61899 53.905 3.0677 53.9382C2.51641 53.9713 2.04264 53.5513 2.00951 53C1.98942 52.6657 1.97314 52.3315 1.96067 51.9973C1.94008 51.4454 2.37079 50.9813 2.92269 50.9607Z" fill="black"/>
<path fill-rule="evenodd" clip-rule="evenodd" d="M3.73739 58.8207C4.27823 58.7089 4.80734 59.0567 4.91918 59.5975C4.99066 59.9432 5.06605 60.2877 5.14533 60.6311C5.26957 61.1692 4.93405 61.7061 4.39592 61.8304C3.85779 61.9546 3.32083 61.6191 3.19659 61.081C3.11387 60.7227 3.0352 60.3632 2.96062 60.0025C2.84877 59.4617 3.19655 58.9326 3.73739 58.8207ZM6.07991 67.1354C6.59118 66.9266 7.17495 67.1718 7.38381 67.683C7.65067 68.3363 7.93238 68.983 8.22865 69.6227C8.46076 70.1239 8.24266 70.7183 7.74152 70.9504C7.24037 71.1825 6.64596 70.9644 6.41385 70.4633C6.10471 69.7958 5.81078 69.121 5.53233 68.4394C5.32347 67.9281 5.56863 67.3443 6.07991 67.1354ZM10.4784 75.7969C10.936 75.4877 11.5576 75.6079 11.8669 76.0655C12.2616 76.6495 12.6699 77.2248 13.0915 77.7908C13.4214 78.2337 13.3298 78.8602 12.8869 79.1901C12.444 79.5201 11.8175 79.4284 11.4876 78.9855C11.0477 78.3949 10.6217 77.7947 10.2099 77.1854C9.9006 76.7278 10.0208 76.1062 10.4784 75.7969ZM16.5586 83.3733C16.9431 82.9769 17.5762 82.9674 17.9726 83.3519C18.2255 83.5973 18.4815 83.8401 18.7404 84.08C18.9998 84.3205 19.2618 84.5578 19.5262 84.7918C19.9398 85.1579 19.9783 85.7899 19.6122 86.2034C19.2462 86.617 18.6142 86.6555 18.2006 86.2894C17.9248 86.0453 17.6515 85.7977 17.3809 85.5469C17.1108 85.2966 16.8437 85.0433 16.5799 84.7873C16.1835 84.4027 16.174 83.7697 16.5586 83.3733ZM24.0741 89.5559C24.3694 89.0892 24.9872 88.9504 25.4538 89.2457C26.0514 89.6239 26.6572 89.9882 27.2708 90.3384C27.7505 90.6121 27.9175 91.2228 27.6438 91.7025C27.37 92.1822 26.7593 92.3492 26.2796 92.0754C25.6395 91.7102 25.0076 91.3302 24.3842 90.9357C23.9176 90.6403 23.7787 90.0226 24.0741 89.5559ZM32.6966 94.0724C32.8904 93.5553 33.4668 93.2932 33.9839 93.487C34.6454 93.735 35.3128 93.9679 35.9858 94.1857C36.5112 94.3558 36.7993 94.9196 36.6293 95.445C36.4593 95.9705 35.8954 96.2586 35.37 96.0886C34.6681 95.8614 33.9719 95.6184 33.2819 95.3598C32.7648 95.1659 32.5027 94.5896 32.6966 94.0724ZM42.0593 96.7342C42.1437 96.1884 42.6545 95.8143 43.2003 95.8986C43.5493 95.9525 43.8992 96.0025 44.25 96.0485C44.7976 96.1203 45.1832 96.6225 45.1114 97.1701C45.0396 97.7177 44.5374 98.1034 43.9898 98.0315C43.624 97.9835 43.259 97.9314 42.895 97.8751C42.3492 97.7908 41.975 97.28 42.0593 96.7342Z" fill="black"/>
<path d="M47.0601 97.04C47.3864 97.0593 47.7118 97.0756 48.0401 97.0878Z" fill="white"/>
<path fill-rule="evenodd" clip-rule="evenodd" d="M46.0618 96.9809C46.0944 96.4296 46.5678 96.0091 47.1191 96.0417C47.4394 96.0606 47.7573 96.0765 48.0772 96.0884C48.6291 96.1089 49.0599 96.5729 49.0394 97.1248C49.0189 97.6767 48.5549 98.1075 48.003 98.087C47.6662 98.0745 47.3335 98.0579 47.0011 98.0382C46.4497 98.0056 46.0292 97.5322 46.0618 96.9809Z" fill="black"/>
<path d="M48.0401 2.95996C47.7134 2.97215 47.3867 2.98806 47.0601 3.00769Z" fill="white"/>
<path fill-rule="evenodd" clip-rule="evenodd" d="M49.0394 2.92269C49.06 3.47459 48.6293 3.93869 48.0774 3.95928C47.7583 3.97118 47.4392 3.98672 47.1201 4.0059C46.5688 4.03904 46.095 3.61899 46.0619 3.0677C46.0288 2.51641 46.4488 2.04264 47.0001 2.00951C47.3343 1.98942 47.6686 1.97314 48.0028 1.96067C48.5547 1.94008 49.0188 2.37079 49.0394 2.92269Z" fill="black"/>
<path fill-rule="evenodd" clip-rule="evenodd" d="M41.1793 3.73731C41.2913 4.27813 40.9436 4.8073 40.4028 4.91926C40.057 4.99083 39.7124 5.06631 39.369 5.14568C38.8309 5.27003 38.2939 4.93462 38.1695 4.39651C38.0452 3.85841 38.3806 3.32139 38.9187 3.19703C39.277 3.11422 39.6366 3.03546 39.9974 2.96078C40.5382 2.84883 41.0674 3.19649 41.1793 3.73731ZM32.8651 6.08126C33.074 6.5925 32.8289 7.17631 32.3177 7.38522C31.6643 7.65224 31.0174 7.9341 30.3776 8.23052C29.8765 8.46269 29.282 8.24466 29.0498 7.74354C28.8177 7.24242 29.0357 6.64798 29.5368 6.41582C30.2044 6.10653 30.8793 5.81244 31.5611 5.53384C32.0724 5.32492 32.6562 5.57001 32.8651 6.08126ZM24.2039 10.4807C24.5132 10.9382 24.393 11.5599 23.9354 11.8692C23.3513 12.264 22.7758 12.6724 22.2097 13.0942C21.7668 13.4241 21.1403 13.3325 20.8103 12.8896C20.4804 12.4467 20.572 11.8202 21.0149 11.4903C21.6056 11.0503 22.2059 10.6241 22.8154 10.2122C23.2729 9.9029 23.8946 10.0231 24.2039 10.4807ZM16.6276 16.5611C17.0239 16.9457 17.0335 17.5788 16.6489 17.9752C16.4034 18.2282 16.1607 18.4842 15.9206 18.7432C15.6801 19.0027 15.4428 19.2646 15.2087 19.5291C14.8427 19.9427 14.2107 19.9812 13.7971 19.6151C13.3836 19.2491 13.3451 18.6171 13.7111 18.2035C13.9553 17.9276 14.2029 17.6543 14.4537 17.3836C14.7042 17.1135 14.9574 16.8464 15.2135 16.5825C15.5981 16.1861 16.2312 16.1765 16.6276 16.5611ZM10.4452 24.076C10.9118 24.3714 11.0507 24.9891 10.7553 25.4558C10.377 26.0534 10.0126 26.6593 9.6624 27.273C9.38865 27.7527 8.77789 27.9196 8.29822 27.6459C7.81855 27.3721 7.65162 26.7614 7.92536 26.2817C8.29068 25.6416 8.67077 25.0095 9.06538 24.3861C9.36077 23.9195 9.97852 23.7806 10.4452 24.076ZM5.92848 32.6975C6.44561 32.8914 6.70765 33.4678 6.51377 33.9849C6.26573 34.6465 6.03267 35.314 5.81482 35.987C5.64473 36.5125 5.0809 36.8005 4.55545 36.6305C4.03001 36.4604 3.74194 35.8965 3.91202 35.3711C4.13925 34.6691 4.38235 33.9728 4.64106 33.2828C4.83495 32.7657 5.41135 32.5036 5.92848 32.6975ZM3.26608 42.0593C3.81189 42.1437 4.18596 42.6545 4.1016 43.2003C4.04765 43.5494 3.99763 43.8994 3.95156 44.2502C3.87967 44.7978 3.37748 45.1834 2.8299 45.1115C2.28231 45.0396 1.89669 44.5374 1.96858 43.9898C2.01662 43.6239 2.0688 43.2589 2.12507 42.8949C2.20943 42.349 2.72028 41.975 3.26608 42.0593Z" fill="black"/>
<path d="M3.00769 47.0601C2.9884 47.3864 2.97215 47.7118 2.95996 48.0401Z" fill="white"/>
<path fill-rule="evenodd" clip-rule="evenodd" d="M3.06673 46.0617C3.61805 46.0943 4.03856 46.5677 4.00596 47.119C3.98703 47.4393 3.97116 47.7572 3.95929 48.0771C3.9388 48.629 3.47478 49.0598 2.92288 49.0393C2.37097 49.0188 1.94018 48.5548 1.96066 48.0029C1.97316 47.6661 1.98979 47.3334 2.00945 47.0009C2.04205 46.4496 2.51541 46.0291 3.06673 46.0617Z" fill="black"/>
<path d="M97.0888 48.0401C97.0766 47.7134 97.0604 47.3867 97.04 47.0601Z" fill="white"/>
<path fill-rule="evenodd" clip-rule="evenodd" d="M96.978 46.0619C97.5292 46.0276 98.0039 46.4467 98.0381 46.9979C98.059 47.3328 98.0756 47.6678 98.0881 48.0027C98.1087 48.5546 97.678 49.0187 97.1261 49.0393C96.5742 49.0599 96.1101 48.6292 96.0895 48.0773C96.0776 47.7589 96.0618 47.4404 96.042 47.122C96.0077 46.5708 96.4268 46.0962 96.978 46.0619Z" fill="black"/>
<path fill-rule="evenodd" clip-rule="evenodd" d="M54.8885 2.8299C54.9603 2.28231 55.4625 1.89662 56.01 1.96844C56.3759 2.01643 56.7409 2.06855 57.1049 2.12478C57.6508 2.20907 58.0249 2.71988 57.9406 3.26569C57.8563 3.8115 57.3455 4.18564 56.7997 4.10134C56.4507 4.04744 56.1007 3.99747 55.7499 3.95146C55.2024 3.87963 54.8167 3.3775 54.8885 2.8299ZM63.3687 4.55438C63.5388 4.02893 64.1026 3.74082 64.628 3.91088C65.33 4.13805 66.0262 4.38108 66.7162 4.63974C67.2333 4.83361 67.4954 5.41 67.3015 5.92714C67.1076 6.44428 66.5313 6.70634 66.0141 6.51247C65.3526 6.2645 64.6852 6.0315 64.0122 5.81371C63.4868 5.64366 63.1987 5.07984 63.3687 4.55438ZM72.3524 8.2964C72.6261 7.81673 73.2369 7.64979 73.7166 7.92353C74.3566 8.28881 74.9886 8.66885 75.6119 9.06342C76.0786 9.35881 76.2174 9.97656 75.9221 10.4432C75.6267 10.9099 75.0089 11.0487 74.5423 10.7533C73.9447 10.3751 73.3389 10.0107 72.7253 9.66057C72.2456 9.38683 72.0787 8.77607 72.3524 8.2964ZM80.3822 13.7947C80.7483 13.3811 81.3802 13.3426 81.7938 13.7087C82.0697 13.9528 82.3429 14.2004 82.6136 14.4512C82.8838 14.7016 83.1509 14.955 83.4149 15.211C83.8112 15.5956 83.8208 16.2287 83.4362 16.6251C83.0516 17.0215 82.4185 17.031 82.0221 16.6464C81.7691 16.4009 81.5131 16.1581 81.2541 15.9181C80.9946 15.6776 80.7326 15.4403 80.4682 15.2063C80.0547 14.8402 80.0162 14.2082 80.3822 13.7947ZM87.1082 20.8085C87.5512 20.4786 88.1777 20.5702 88.5076 21.0131C88.9477 21.6039 89.3738 22.2042 89.7858 22.8138C90.0951 23.2713 89.9749 23.893 89.5174 24.2023C89.0598 24.5116 88.4382 24.3914 88.1289 23.9338C87.734 23.3496 87.3255 22.7741 86.9037 22.2079C86.5738 21.765 86.6653 21.1385 87.1082 20.8085ZM92.255 29.0489C92.7561 28.8167 93.3506 29.0347 93.5828 29.5358C93.8921 30.2034 94.1863 30.8784 94.465 31.5603C94.6739 32.0715 94.4289 32.6553 93.9176 32.8643C93.4064 33.0732 92.8226 32.8282 92.6136 32.3169C92.3465 31.6635 92.0646 31.0165 91.7681 30.3767C91.5359 29.8755 91.7539 29.2811 92.255 29.0489ZM95.6032 38.1693C96.1413 38.0449 96.6783 38.3803 96.8028 38.9183C96.8856 39.2767 96.9645 39.6363 97.0392 39.9971C97.1512 40.5379 96.8037 41.0671 96.2629 41.1792C95.7221 41.2912 95.1928 40.9436 95.0808 40.4028C95.0092 40.057 94.9336 39.7124 94.8542 39.3689C94.7298 38.8309 95.0651 38.2938 95.6032 38.1693Z" fill="black"/>
<path d="M52.94 3.00769C52.6136 2.9884 52.2883 2.97215 51.96 2.95996Z" fill="white"/>
<path fill-rule="evenodd" clip-rule="evenodd" d="M50.9607 2.92288C50.9811 2.37097 51.4452 1.94018 51.9971 1.96066C52.3338 1.97316 52.6666 1.98979 52.999 2.00945C53.5503 2.04205 53.9708 2.51541 53.9382 3.06673C53.9056 3.61805 53.4323 4.03856 52.881 4.00596C52.5607 3.98703 52.2427 3.97116 51.9229 3.95929C51.371 3.9388 50.9402 3.47478 50.9607 2.92288Z" fill="black"/>
<path d="M51.96 97.0888C52.2866 97.0766 52.6133 97.0604 52.94 97.04Z" fill="white"/>
<path fill-rule="evenodd" clip-rule="evenodd" d="M53.938 96.9779C53.9723 97.5291 53.5533 98.0038 53.002 98.038C52.6671 98.0588 52.3322 98.0755 51.9973 98.088C51.4454 98.1086 50.9813 97.6779 50.9607 97.126C50.9401 96.5741 51.3708 96.11 51.9227 96.0894C52.2411 96.0775 52.5595 96.0617 52.8779 96.0419C53.4291 96.0076 53.9038 96.4267 53.938 96.9779Z" fill="black"/>
<path fill-rule="evenodd" clip-rule="evenodd" d="M97.1698 54.8885C97.7175 54.9602 98.1032 55.4622 98.0315 56.0098C97.9836 56.3757 97.9316 56.7406 97.8755 57.1046C97.7913 57.6504 97.2806 58.0246 96.7347 57.9405C96.1889 57.8563 95.8147 57.3456 95.8988 56.7997C95.9527 56.4508 96.0025 56.1009 96.0485 55.7502C96.1202 55.2025 96.6222 54.8168 97.1698 54.8885ZM95.4468 63.3697C95.9723 63.5397 96.2605 64.1034 96.0905 64.6289C95.8635 65.3308 95.6206 66.0269 95.362 66.7168C95.1683 67.234 94.5919 67.4961 94.0747 67.3023C93.5576 67.1085 93.2954 66.5322 93.4892 66.015C93.7371 65.3536 93.9699 64.6862 94.1876 64.0134C94.3575 63.4879 94.9213 63.1997 95.4468 63.3697ZM91.7056 72.3543C92.1853 72.628 92.3523 73.2387 92.0786 73.7184C91.7134 74.3584 91.3335 74.9903 90.9391 75.6136C90.6437 76.0802 90.026 76.2191 89.5593 75.9238C89.0926 75.6284 88.9537 75.0107 89.2491 74.544C89.6272 73.9465 89.9914 73.3408 90.3415 72.7273C90.6152 72.2476 91.2259 72.0806 91.7056 72.3543ZM86.2075 80.3847C86.621 80.7508 86.6595 81.3828 86.2935 81.7963C86.0493 82.0722 85.8019 82.3454 85.5511 82.616C85.3007 82.8862 85.0474 83.1532 84.7914 83.4171C84.4068 83.8135 83.7737 83.823 83.3773 83.4384C82.9809 83.0539 82.9714 82.4208 83.356 82.0244C83.6014 81.7714 83.8442 81.5154 84.0842 81.2565C84.3246 80.9971 84.5618 80.7351 84.7959 80.4708C85.1619 80.0572 85.7939 80.0187 86.2075 80.3847ZM79.1931 87.1109C79.523 87.5538 79.4314 88.1803 78.9885 88.5102C78.3978 88.9501 77.7975 89.3762 77.188 89.7881C76.7305 90.0973 76.1088 89.9771 75.7996 89.5195C75.4903 89.0619 75.6105 88.4403 76.0681 88.131C76.6523 87.7363 77.2277 87.3279 77.7938 86.9062C78.2367 86.5763 78.8632 86.6679 79.1931 87.1109ZM70.9519 92.257C71.184 92.7582 70.9659 93.3526 70.4648 93.5847C69.7973 93.8939 69.1224 94.1879 68.4406 94.4664C67.9293 94.6753 67.3455 94.4302 67.1367 93.9189C66.9278 93.4076 67.1729 92.8239 67.6842 92.615C68.3376 92.348 68.9844 92.0663 69.6242 91.7699C70.1254 91.5378 70.7198 91.7559 70.9519 92.257ZM61.8305 95.6037C61.9548 96.1418 61.6194 96.6788 61.0812 96.8031C60.7229 96.8859 60.3634 96.9646 60.0026 97.0393C59.4618 97.1512 58.9327 96.8035 58.8208 96.2626C58.7088 95.7218 59.0565 95.1927 59.5974 95.0807C59.9431 95.0092 60.2877 94.9338 60.6311 94.8544C61.1692 94.7301 61.7062 95.0656 61.8305 95.6037Z" fill="black"/>
<path d="M97.04 52.94C97.0593 52.6136 97.0756 52.2883 97.0878 51.96Z" fill="white"/>
<path fill-rule="evenodd" clip-rule="evenodd" d="M97.1249 50.9607C97.6768 50.9811 98.1076 51.4452 98.0871 51.9971C98.0746 52.3338 98.058 52.6666 98.0383 52.999C98.0057 53.5503 97.5324 53.9708 96.981 53.9382C96.4297 53.9056 96.0092 53.4323 96.0418 52.881C96.0608 52.5607 96.0766 52.2427 96.0885 51.9229C96.109 51.371 96.573 50.9402 97.1249 50.9607Z" fill="black"/>
<path d="M97.3437 48.2558C97.2563 48.2558 97.1709 48.2446 97.0835 48.2406C85.1595 47.919 73.8122 43.0424 65.3761 34.614C56.94 26.1857 52.0568 14.8466 51.731 2.9296C51.731 2.82804 51.7168 2.73563 51.7158 2.63712C51.7221 2.42629 51.6864 2.2163 51.6107 2.0194C51.5351 1.8225 51.421 1.64262 51.275 1.49025C51.1291 1.33788 50.9543 1.21606 50.7607 1.1319C50.5672 1.04774 50.3589 1.00292 50.1479 1.00005H50.0208C49.5732 0.996751 49.1417 1.16728 48.8173 1.4757C48.493 1.78412 48.3012 2.20634 48.2822 2.65337C48.2822 2.74477 48.272 2.83414 48.267 2.92554C47.9433 14.8423 43.0622 26.1818 34.6278 34.6113C26.1934 43.0408 14.8472 47.9191 2.9236 48.2426C2.84231 48.2426 2.76203 48.2538 2.68176 48.2558C2.2385 48.2613 1.81485 48.4393 1.50082 48.752C1.1868 49.0647 1.00715 49.4875 1.00004 49.9305V49.9498C0.997016 50.3972 1.16791 50.8283 1.47669 51.1522C1.78548 51.4762 2.20805 51.6677 2.65534 51.6864C2.74273 51.6864 2.82808 51.6985 2.91547 51.7016C14.8427 52.0232 26.1927 56.9027 34.6289 65.3354C43.065 73.7682 47.9453 85.1125 48.2649 97.0329L48.2741 97.2736C48.2741 97.7314 48.4561 98.1706 48.78 98.4943C49.104 98.8181 49.5434 99 50.0015 99C50.4597 99 50.8991 98.8181 51.223 98.4943C51.547 98.1706 51.729 97.7314 51.729 97.2736L51.7381 97.0379C52.0562 85.1181 56.9345 73.7737 65.3689 65.3401C73.8033 56.9064 85.1519 52.0253 97.0784 51.7016C97.1577 51.7016 97.2359 51.6914 97.3152 51.6884C97.7596 51.6816 98.1838 51.5023 98.4983 51.1884C98.8127 50.8745 98.9926 50.4507 99 50.0066V49.9924C99.003 49.5448 98.8319 49.1136 98.5229 48.7896C98.2139 48.4656 97.7911 48.2742 97.3437 48.2558V48.2558Z" fill="white"/>
<path fill-rule="evenodd" clip-rule="evenodd" d="M48.1282 0.751044C48.6394 0.264989 49.3189 -0.00408636 50.0241 4.69226e-05H50.1614C50.5051 0.00471951 50.8444 0.0778006 51.1596 0.214866C51.4747 0.351932 51.7595 0.550342 51.9972 0.798562C52.235 1.04679 52.4209 1.33985 52.5442 1.66068C52.6639 1.97219 52.7222 2.30382 52.716 2.63731C52.7165 2.64802 52.7178 2.66616 52.7208 2.70588L52.7211 2.70972C52.7245 2.75382 52.7303 2.82884 52.7309 2.91357C53.0525 14.5706 57.8305 25.6618 66.0829 33.9066C74.338 42.1541 85.442 46.9262 97.1105 47.2409L97.13 47.2417C97.1631 47.2432 97.1977 47.2455 97.2271 47.2477C97.254 47.2497 97.2766 47.2516 97.2898 47.2526C97.3281 47.2556 97.3399 47.2558 97.3437 47.2558V48.2558L97.3848 47.2567C98.0911 47.2857 98.7586 47.5878 99.2466 48.0994C99.7337 48.6101 100.004 49.2897 100 49.9953V50.0066L99.9998 50.0231C99.9882 50.7271 99.703 51.3988 99.2047 51.8961C98.7102 52.3898 98.0443 52.6733 97.3461 52.688C97.332 52.6887 97.3154 52.6901 97.2708 52.6934C97.2312 52.6963 97.1671 52.7009 97.0945 52.7015C85.4276 53.021 74.3268 57.7971 66.076 66.0472C57.8225 74.2999 53.049 85.4008 52.7378 97.0646L52.7374 97.0767L52.7289 97.2951C52.7232 98.0106 52.4364 98.6954 51.9299 99.2017C51.4184 99.7129 50.7247 100 50.0015 100C49.2783 100 48.5847 99.7129 48.0731 99.2017C47.5666 98.6954 47.2797 98.0104 47.2742 97.2947L47.2657 97.0708L47.2653 97.0597C46.9525 85.3953 42.177 74.2945 33.9219 66.0427C25.6667 57.7908 14.5601 53.0159 2.88851 52.7012L2.88063 52.701C2.81778 52.6988 2.75476 52.6936 2.71962 52.6908C2.71457 52.6904 2.7101 52.69 2.70629 52.6897C2.68679 52.6881 2.67492 52.6873 2.66569 52.6868C2.66074 52.6865 2.65771 52.6864 2.65623 52.6864C2.6551 52.6863 2.65575 52.6864 2.65623 52.6864C2.64232 52.6864 2.62752 52.6861 2.61362 52.6855C1.90758 52.656 1.24044 52.3537 0.752845 51.8422C0.266101 51.3315 -0.0037553 50.6522 3.94865e-05 49.9468V49.9305L0.000168173 49.9144C0.0114541 49.211 0.296732 48.5398 0.795207 48.0434C1.29141 47.5493 1.95994 47.2672 2.65983 47.256C2.66845 47.2557 2.68174 47.2547 2.72684 47.2513C2.76463 47.2484 2.83194 47.2433 2.90725 47.2427C14.5714 46.9235 25.67 42.1501 33.9209 33.904C42.1743 25.6554 46.9506 14.5592 47.2673 2.89839C47.2675 2.89348 47.2676 2.88857 47.2678 2.88366C47.268 2.87911 47.2683 2.87457 47.2685 2.87004C47.2734 2.78223 47.2769 2.7431 47.2791 2.71797C47.2812 2.69377 47.2822 2.68257 47.2822 2.65337C47.2822 2.63925 47.2825 2.62513 47.2831 2.61102C47.313 1.90488 47.6161 1.23806 48.1282 0.751044ZM97.3155 49.2556C97.2434 49.2546 97.18 49.2501 97.1374 49.2468C97.1201 49.2455 97.1064 49.2444 97.095 49.2435C97.0721 49.2417 97.0588 49.2407 97.0451 49.2399C84.8697 48.9086 73.2836 43.9279 64.6693 35.3215C56.0523 26.7123 51.0642 15.1299 50.7314 2.95693C50.7312 2.95133 50.7311 2.94573 50.7311 2.94013C50.731 2.93662 50.731 2.93311 50.731 2.9296C50.731 2.92183 50.7305 2.90864 50.7267 2.85855L50.7259 2.84874C50.7226 2.80602 50.7167 2.72937 50.7158 2.64743C50.7157 2.63395 50.7158 2.62046 50.7162 2.60698C50.7186 2.52889 50.7053 2.45109 50.6773 2.37812C50.6493 2.30515 50.607 2.23845 50.5528 2.18193C50.4987 2.12541 50.4338 2.08019 50.3619 2.04893C50.2916 2.01836 50.216 2.00176 50.1394 2.00005H50.0208L50.0135 2.00002C49.8248 1.99863 49.643 2.07052 49.5065 2.20036C49.3729 2.32741 49.2928 2.50022 49.2819 2.68367C49.2801 2.78869 49.2696 2.92537 49.2664 2.96811C49.2663 2.96963 49.2662 2.97104 49.2661 2.97232C48.9306 15.1378 43.9454 26.7129 35.3347 35.3186C26.7193 43.929 15.1299 48.9118 2.95072 49.2422C2.94838 49.2423 2.94605 49.2424 2.94371 49.2424C2.93701 49.2425 2.9303 49.2426 2.9236 49.2426C2.92463 49.2426 2.9179 49.2426 2.87775 49.2456L2.867 49.2464C2.8335 49.249 2.77075 49.2539 2.70705 49.2555L2.69415 49.2558C2.51098 49.2581 2.33603 49.3316 2.20644 49.4606C2.07835 49.5882 2.00454 49.76 2.00004 49.9402V49.9498L2.00002 49.9565C1.99875 50.1446 2.07058 50.3259 2.20054 50.4623C2.32755 50.5955 2.50041 50.6756 2.68415 50.6866C2.75889 50.6877 2.82437 50.6928 2.86452 50.696L2.88533 50.6976C2.92171 50.7005 2.93503 50.7016 2.94749 50.7021C15.1285 51.0318 26.7199 56.0157 35.3358 64.6282C43.9517 73.2406 48.9365 84.8262 49.2644 97.0005C49.2645 97.0024 49.2645 97.0042 49.2646 97.0061L49.2734 97.2356C49.2738 97.2482 49.2741 97.2609 49.2741 97.2736C49.2741 97.466 49.3506 97.6507 49.4869 97.787C49.6233 97.9233 49.8084 98 50.0015 98C50.1946 98 50.3797 97.9233 50.5161 97.787C50.6525 97.6507 50.729 97.466 50.729 97.2736C50.729 97.2663 50.729 97.2591 50.7292 97.2519C50.7293 97.2462 50.7295 97.2405 50.7297 97.2348L50.7385 97.0113C50.7385 97.0093 50.7386 97.0072 50.7386 97.0052C51.065 84.8316 56.0479 73.2461 64.6618 64.6329C73.2772 56.0183 84.8691 51.0326 97.0513 50.702C97.0603 50.7017 97.0694 50.7016 97.0784 50.7016C97.0772 50.7016 97.0794 50.7016 97.0871 50.7012C97.0924 50.701 97.0988 50.7006 97.1075 50.7C97.112 50.6997 97.1171 50.6993 97.1229 50.6989C97.1489 50.6969 97.2141 50.6915 97.2768 50.6891L97.2999 50.6885C97.4848 50.6857 97.6612 50.6111 97.7918 50.4807C97.9209 50.3518 97.9953 50.1785 98 49.9966V49.9924L98 49.9857C98.0013 49.7975 97.9294 49.6161 97.7993 49.4798C97.6722 49.3465 97.4993 49.2664 97.3155 49.2556Z" fill="black"/>
</svg>
