<svg width="100" height="100" viewBox="0 0 100 100" fill="none" xmlns="http://www.w3.org/2000/svg">
<path fill-rule="evenodd" clip-rule="evenodd" d="M48.8709 0H48.9785C49.2768 0 49.575 0.00265642 49.873 0.00796231L49.6787 10.9153C49.481 10.9118 49.2831 10.9098 49.0851 10.9092C48.837 10.9195 48.5902 10.9313 48.3448 10.9447L47.7504 0.051853C48.0865 0.03351 48.4242 0.0176347 48.7634 0.00424515L48.8709 0ZM63.988 13.8867C63.7722 13.7975 63.5557 13.7103 63.3385 13.6251L67.3234 3.46989C67.6009 3.57877 67.8775 3.69017 68.1532 3.80407C68.4288 3.9179 68.7032 4.03413 68.9764 4.15275L64.6322 14.1595C64.4184 14.0667 64.2036 13.9757 63.988 13.8867ZM32.5561 14.4878C32.0639 14.7003 31.5803 14.921 31.1055 15.1496L26.3747 5.31961C26.9841 5.02634 27.603 4.74387 28.2315 4.4725L32.5561 14.4878ZM76.7087 22.3637C76.5436 22.199 76.3771 22.0358 76.2091 21.8742L83.7736 14.0138C83.9883 14.2204 84.2012 14.429 84.4124 14.6396C84.6233 14.8499 84.8323 15.0621 85.0393 15.276L77.199 22.8614C77.0371 22.6941 76.8737 22.5282 76.7087 22.3637ZM18.7393 24.8189C18.4044 25.2267 18.079 25.6409 17.7632 26.0615L9.0403 19.5102C9.45064 18.9638 9.87377 18.4251 10.3097 17.8944L18.7393 24.8189ZM85.205 35.0453C85.1157 34.8302 85.0245 34.616 84.9314 34.4027L94.9297 30.0389C95.0488 30.3118 95.1655 30.5859 95.2798 30.8611C95.394 31.1361 95.5057 31.412 95.6149 31.6888L85.4669 35.6922C85.3816 35.4759 85.2943 35.2602 85.205 35.0453ZM11.1124 40.4279C10.9897 40.9491 10.8771 41.473 10.7747 41.999L0.0665366 39.9149C0.195967 39.2499 0.338391 38.5871 0.493834 37.9271L11.1124 40.4279ZM88.1877 50C88.1877 49.7673 88.1856 49.5347 88.1815 49.3022L99.0888 49.1069C99.0941 49.4045 99.0968 49.7022 99.0968 50C99.0968 50.2978 99.0941 50.5955 99.0888 50.8931L88.1815 50.6978C88.1856 50.4653 88.1877 50.2327 88.1877 50ZM10.7742 58.0015C10.8766 58.5276 10.9891 59.0514 11.1118 59.5726L0.493125 62.0729C0.33771 61.4129 0.195315 60.7501 0.065918 60.0851L10.7742 58.0015ZM85.205 64.9547C85.2943 64.7398 85.3816 64.5241 85.4669 64.3078L95.6149 68.3112C95.5057 68.588 95.394 68.8639 95.2798 69.1389C95.1655 69.4141 95.0488 69.6882 94.9297 69.9611L84.9314 65.5973C85.0245 65.384 85.1157 65.1698 85.205 64.9547ZM17.7623 73.9386C18.0781 74.3591 18.4035 74.7734 18.7385 75.1811L10.3092 82.1061C9.87322 81.5754 9.45005 81.0366 9.03967 80.4903L17.7623 73.9386ZM76.7087 77.6363C76.8737 77.4718 77.0371 77.3059 77.199 77.1386L85.0393 84.724C84.8323 84.9379 84.6233 85.1501 84.4124 85.3604C84.2012 85.571 83.9883 85.7796 83.7736 85.9862L76.2091 78.1258C76.3771 77.9642 76.5436 77.801 76.7087 77.6363ZM31.1053 84.8496C31.5802 85.0782 32.0637 85.2988 32.5559 85.5113L28.2317 95.5268C27.6033 95.2555 26.9844 94.9731 26.375 94.6798L31.1053 84.8496ZM63.988 86.1133C64.2036 86.0243 64.4184 85.9333 64.6322 85.8405L68.9764 95.8473C68.7032 95.9659 68.4288 96.0821 68.1532 96.1959C67.8775 96.3098 67.6009 96.4212 67.3234 96.5301L63.3385 86.3749C63.5557 86.2897 63.7722 86.2025 63.988 86.1133ZM49.0855 89.0908C48.8375 89.0805 48.5908 89.0686 48.3455 89.0552L47.7498 99.948C48.0859 99.9664 48.4235 99.9823 48.7627 99.9957L48.8706 100H48.9785C49.2768 100 49.575 99.9973 49.873 99.992L49.6787 89.0847C49.4811 89.0882 49.2833 89.0902 49.0855 89.0908Z" fill="black"/>
<path d="M49.0967 78.5092C64.8419 78.5092 77.6058 65.7452 77.6058 50.0001C77.6058 34.2549 64.8419 21.491 49.0967 21.491C33.3516 21.491 20.5876 34.2549 20.5876 50.0001C20.5876 65.7452 33.3516 78.5092 49.0967 78.5092Z" fill="white"/>
<path fill-rule="evenodd" clip-rule="evenodd" d="M49.0969 22.4C33.8538 22.4 21.4969 34.7569 21.4969 50C21.4969 65.243 33.8538 77.6 49.0969 77.6C64.34 77.6 76.6969 65.243 76.6969 50C76.6969 34.7569 64.34 22.4 49.0969 22.4ZM19.6787 50C19.6787 33.7528 32.8497 20.5818 49.0969 20.5818C65.3441 20.5818 78.5151 33.7528 78.5151 50C78.5151 66.2472 65.3441 79.4182 49.0969 79.4182C32.8497 79.4182 19.6787 66.2472 19.6787 50Z" fill="black"/>
</svg>
