<svg width="115" height="100" viewBox="0 0 115 100" fill="none" xmlns="http://www.w3.org/2000/svg">
<path d="M56.8599 86.2599C77.9682 86.2599 95.0799 69.1483 95.0799 48.0399C95.0799 26.9316 77.9682 9.81995 56.8599 9.81995C35.7516 9.81995 18.6399 26.9316 18.6399 48.0399C18.6399 69.1483 35.7516 86.2599 56.8599 86.2599Z" fill="white"/>
<path fill-rule="evenodd" clip-rule="evenodd" d="M32.1662 96.0894C33.6201 95.5165 35.3199 95.0601 38.003 95.0601C41.5339 95.0601 43.3467 95.8555 45.0677 96.6152L45.0841 96.6225C46.6872 97.3301 48.2049 98.0001 51.3248 98.0001C54.4449 98.0001 55.9631 97.33 57.5668 96.6223L57.583 96.6152C59.3043 95.8555 61.1174 95.0601 64.6478 95.0601C68.1781 95.0601 69.991 95.8555 71.712 96.6152L71.7284 96.6225C73.3315 97.3301 74.8492 98.0001 77.9685 98.0001C81.078 98.0001 82.5993 97.3351 84.1968 96.6318L84.2212 96.6211C85.9197 95.8733 87.7101 95.0851 91.1537 95.0635L91.1663 97.0634C88.1364 97.0824 86.6386 97.742 85.0502 98.4414L85.0026 98.4623C83.2881 99.2171 81.4738 100 77.9685 100C74.4381 100 72.6253 99.2046 70.9043 98.4449L70.8879 98.4377C69.2848 97.73 67.7671 97.0601 64.6478 97.0601C61.5285 97.0601 60.0105 97.73 58.407 98.4376L58.3904 98.4449C56.669 99.2046 54.8557 100 51.3248 100C47.7939 100 45.9811 99.2046 44.2601 98.4449L44.2436 98.4376C42.6405 97.73 41.1229 97.0601 38.003 97.0601C35.5894 97.0601 34.1377 97.4622 32.8994 97.9502C32.5512 98.0873 32.1938 98.2445 31.8201 98.4088C30.9062 98.8107 29.8945 99.2556 28.6808 99.5566L28.1992 97.6155C29.2425 97.3567 30.0023 97.0213 30.8428 96.6504C31.251 96.4702 31.6782 96.2817 32.1662 96.0894Z" fill="black"/>
<path fill-rule="evenodd" clip-rule="evenodd" d="M31.611 19.064C29.8882 19.8231 28.0737 20.6178 24.54 20.6178C21.1173 20.6178 19.3042 19.8751 17.6153 19.1364C17.5633 19.1137 17.5115 19.091 17.4598 19.0683C15.9285 18.3973 14.5012 17.7719 11.7522 17.6955L11.8077 15.6963C14.9465 15.7835 16.6574 16.5332 18.2638 17.237C18.3148 17.2594 18.3658 17.2817 18.4167 17.304C19.9716 17.984 21.4984 18.6178 24.54 18.6178C27.6635 18.6178 29.1832 17.9482 30.7882 17.241L30.8046 17.2338C32.5274 16.4748 34.3419 15.6801 37.8756 15.6801C41.4094 15.6801 43.2242 16.4754 44.9473 17.235L44.9637 17.2422C46.569 17.95 48.0889 18.6201 51.2122 18.6201C54.3355 18.6201 55.8557 17.95 57.4614 17.2423L57.4779 17.235C59.2014 16.4754 61.0167 15.6801 64.5511 15.6801C68.0855 15.6801 69.8997 16.4754 71.6222 17.2351L71.6389 17.2424C73.2433 17.9501 74.7624 18.6201 77.8855 18.6201C81.0089 18.6201 82.5292 17.9505 84.1349 17.2433L84.1515 17.236C85.875 16.477 87.6902 15.6823 91.2244 15.6823C94.7586 15.6823 96.5735 16.477 98.297 17.236L98.3132 17.2431C99.9189 17.9503 101.44 18.6201 104.564 18.6201C105.004 18.6201 105.408 18.604 105.793 18.5781L105.927 20.5736C105.503 20.6021 105.054 20.6201 104.564 20.6201C101.03 20.6201 99.2143 19.8254 97.4909 19.0664L97.4743 19.0591C95.8686 18.3519 94.3483 17.6823 91.2244 17.6823C88.1002 17.6823 86.5796 18.352 84.9738 19.0592L84.9576 19.0664C83.2342 19.8254 81.4192 20.6201 77.8855 20.6201C74.3516 20.6201 72.5376 19.8247 70.8152 19.065L70.7989 19.0578C69.1944 18.3502 67.675 17.6801 64.5511 17.6801C61.427 17.6801 59.9065 18.3502 58.3007 19.058L58.2845 19.0651C56.5611 19.8247 54.7461 20.6201 51.2122 20.6201C47.6784 20.6201 45.8636 19.8247 44.1405 19.0651L44.1241 19.0579C42.5188 18.3501 40.9989 17.6801 37.8756 17.6801C34.7521 17.6801 33.2324 18.3496 31.6274 19.0568L31.611 19.064Z" fill="black"/>
<path fill-rule="evenodd" clip-rule="evenodd" d="M30.6644 1.53548C32.3773 0.781376 34.1909 0 37.6929 0C41.2241 0 43.0368 0.795478 44.7579 1.55516L44.7741 1.56234C46.3772 2.26999 47.8951 2.94 51.016 2.94C54.137 2.94 55.6554 2.26991 57.2591 1.5622L57.2751 1.55513C58.9964 0.795482 60.8094 0 64.3401 0C67.8707 0 69.6837 0.795474 71.4044 1.5552L71.4215 1.56276C73.0241 2.27034 74.5407 2.94 77.6576 2.94C80.0749 2.94 81.5275 2.5368 82.7679 2.04782C83.1147 1.91114 83.4703 1.75487 83.8421 1.5915C84.7602 1.18808 85.7767 0.741399 87.0005 0.439676L87.4793 2.38153C86.4279 2.64074 85.6631 2.97798 84.8171 3.351C84.4108 3.53013 83.9858 3.71752 83.5014 3.90847C82.0458 4.4823 80.345 4.94 77.6576 4.94C74.129 4.94 72.3171 4.14444 70.5966 3.3848L70.5809 3.37789C68.978 2.67016 67.4602 2 64.3401 2C61.2206 2 59.7028 2.66984 58.0993 3.37748L58.0826 3.38487C56.3611 4.14456 54.5476 4.94 51.016 4.94C47.4843 4.94 45.6713 4.14454 43.9502 3.38484L43.9336 3.3775C42.3306 2.66989 40.813 2 37.6929 2C34.5862 2 33.0655 2.66367 31.4702 3.36595L31.4415 3.3786C29.7468 4.12471 27.9597 4.91149 24.5269 4.93544L24.5129 2.93549C27.5328 2.91442 29.0276 2.25622 30.6133 1.55795C30.6304 1.55047 30.6474 1.54298 30.6644 1.53548Z" fill="black"/>
<path fill-rule="evenodd" clip-rule="evenodd" d="M11.1047 81.38C10.6685 81.38 10.2676 81.3961 9.88194 81.4201L9.75781 79.4239C10.175 79.398 10.6183 79.38 11.1047 79.38C14.6386 79.38 16.4531 80.1754 18.1758 80.935L18.1924 80.9423C19.7972 81.65 21.3166 82.32 24.4392 82.32C27.5618 82.32 29.0817 81.65 30.6872 80.9423L30.7037 80.935C32.4269 80.1753 34.242 79.38 37.7758 79.38C41.3097 79.38 43.1242 80.1754 44.8472 80.935L44.8634 80.9421C46.4685 81.6499 47.9885 82.32 51.1125 82.32C54.2363 82.32 55.7563 81.6499 57.3615 80.9422L57.3779 80.935C59.101 80.1753 60.9158 79.38 64.4502 79.38C67.9846 79.38 69.7991 80.1753 71.5218 80.935L71.5386 80.9424C73.1432 81.6501 74.6622 82.32 77.7847 82.32C80.9071 82.32 82.4274 81.6501 84.0333 80.9424L84.0502 80.9349C85.7739 80.1753 87.5898 79.38 91.1246 79.38C94.5503 79.38 96.364 80.1243 98.0542 80.8638C98.1052 80.8861 98.156 80.9084 98.2067 80.9306C99.7402 81.6028 101.17 82.2295 103.927 82.3045L103.873 84.3038C100.725 84.2182 99.0115 83.467 97.4021 82.7616C97.3521 82.7397 97.3023 82.7179 97.2525 82.6961C95.6959 82.015 94.1686 81.38 91.1246 81.38C87.9997 81.38 86.4786 82.0503 84.8725 82.7581L84.8567 82.7651C83.133 83.5246 81.318 84.32 77.7847 84.32C74.2513 84.32 72.4373 83.5246 70.7148 82.765L70.6987 82.7579C69.0939 82.0502 67.5743 81.38 64.4502 81.38C61.3263 81.38 59.8064 82.0501 58.2011 82.7578L58.1847 82.765C56.4616 83.5247 54.6468 84.32 51.1125 84.32C47.5781 84.32 45.7633 83.5247 44.0403 82.765L44.0237 82.7577C42.4186 82.05 40.899 81.38 37.7758 81.38C34.6524 81.38 33.1321 82.0502 31.5266 82.7579L31.5105 82.765C29.7873 83.5246 27.9725 84.32 24.4392 84.32C20.9058 84.32 19.0915 83.5246 17.3689 82.765L17.3526 82.7578C15.7477 82.0501 14.2281 81.38 11.1047 81.38Z" fill="black"/>
<path fill-rule="evenodd" clip-rule="evenodd" d="M10.5995 63.7004C7.77926 63.6805 4.99764 64.3688 2.48975 65.7049L3.43014 67.4701C5.64814 66.2884 8.1032 65.6823 10.5886 65.7003V65.7004H10.5959C13.7147 65.7004 15.232 66.3702 16.8349 67.0778L16.8513 67.085C18.572 67.8446 20.3845 68.64 23.9143 68.64C27.4441 68.64 29.2564 67.8446 30.977 67.085L30.9932 67.0778C32.5959 66.3703 34.1133 65.7004 37.2327 65.7004C40.3519 65.7004 41.869 66.3701 43.4716 67.0776L43.4882 67.085C45.2088 67.8446 47.0214 68.64 50.5522 68.64C54.083 68.64 55.8966 67.8446 57.618 67.0851L57.6349 67.0776C59.2383 66.3701 60.756 65.7004 63.8739 65.7004C66.9916 65.7004 68.5082 66.37 70.1104 67.0775L70.1274 67.085C71.8478 67.8446 73.6603 68.64 77.1912 68.64C80.722 68.64 82.5348 67.8446 84.2558 67.085L84.2722 67.0778C85.8753 66.3702 87.393 65.7004 90.5128 65.7004C93.6328 65.7004 95.1507 66.3702 96.7541 67.0778L96.7705 67.085C98.4917 67.8446 100.305 68.64 103.836 68.64C107.392 68.64 109.248 67.8187 110.935 67.0727C111.328 66.8989 111.711 66.7293 112.105 66.575L111.375 64.7129C110.908 64.896 110.48 65.0841 110.063 65.2676C108.425 65.9889 106.946 66.64 103.836 66.64C100.716 66.64 99.1977 65.9701 97.5943 65.2625L97.5779 65.2553C95.8567 64.4957 94.0437 63.7004 90.5128 63.7004C86.982 63.7004 85.1692 64.4957 83.4482 65.2553L83.4318 65.2625C81.8288 65.9701 80.3111 66.64 77.1912 66.64C74.071 66.64 72.5536 65.97 70.9511 65.2624L70.9352 65.2554C69.215 64.4958 67.4032 63.7004 63.8739 63.7004C60.3446 63.7004 58.5318 64.4958 56.8106 65.2553L56.7948 65.2622C55.191 65.9699 53.6726 66.64 50.5522 66.64C47.4322 66.64 45.9148 65.9701 44.3122 65.2625L44.2959 65.2553C42.5753 64.4958 40.7631 63.7004 37.2327 63.7004C33.7024 63.7004 31.8899 64.4957 30.1692 65.2553L30.1526 65.2627C28.55 65.9702 27.0329 66.64 23.9143 66.64C20.7955 66.64 19.2782 65.9701 17.6753 65.2626L17.6589 65.2553C15.9388 64.496 14.127 63.7009 10.5995 63.7004Z" fill="black"/>
<path fill-rule="evenodd" clip-rule="evenodd" d="M3.76077 32.9248C5.4453 32.1803 7.30106 31.36 10.8515 31.36C14.3813 31.36 16.1939 32.1554 17.9146 32.9149L17.931 32.9222C19.5339 33.6297 21.0513 34.2995 24.1701 34.2995C27.2891 34.2995 28.8063 33.6305 30.409 32.9238L30.4256 32.9165C32.1462 32.1578 33.9587 31.3634 37.4888 31.3634C41.019 31.3634 42.8311 32.1578 44.5517 32.9165L44.568 32.9236C46.1707 33.6304 47.6883 34.2995 50.8086 34.2995C53.929 34.2995 55.4475 33.6295 57.0513 32.9218L57.0671 32.9149C58.7883 32.1554 60.6012 31.36 64.1305 31.36C67.6599 31.36 69.4717 32.1554 71.192 32.915L71.2079 32.922C72.8104 33.6295 74.3278 34.2995 77.4481 34.2995C80.5681 34.2995 82.0858 33.6297 83.6889 32.9221L83.7053 32.9149C85.4263 32.1553 87.2391 31.36 90.77 31.36C94.3009 31.36 96.114 32.1553 97.8352 32.9149L97.8516 32.9221C99.455 33.6297 100.973 34.2995 104.093 34.2995L104.101 34.2996C106.59 34.3184 109.049 33.7122 111.27 32.5297L112.21 34.2952C109.698 35.632 106.913 36.3202 104.089 36.2995C100.561 36.299 98.7485 35.5039 97.0278 34.7446L97.0114 34.7374C95.408 34.0298 93.89 33.36 90.77 33.36C87.65 33.36 86.1323 34.0298 84.5292 34.7374L84.5128 34.7446C82.7918 35.5042 80.979 36.2995 77.4481 36.2995C73.9172 36.2995 72.1046 35.5042 70.3842 34.7446L70.3672 34.7371C68.7649 34.0296 67.2483 33.36 64.1305 33.36C61.0125 33.36 59.4948 34.0297 57.8913 34.7372L57.8744 34.7447C56.153 35.5042 54.3394 36.2995 50.8086 36.2995C47.2779 36.2995 45.4655 35.5052 43.7448 34.7465L43.7282 34.7391C42.1256 34.0324 40.6083 33.3634 37.4888 33.3634C34.3691 33.3634 32.8515 34.0326 31.2488 34.7393L31.2325 34.7465C29.512 35.5051 27.6998 36.2995 24.1701 36.2995C20.6403 36.2995 18.8277 35.5042 17.107 34.7446L17.0906 34.7374C15.4877 34.0298 13.9703 33.36 10.8515 33.36C7.74658 33.36 6.26804 34.0103 4.63124 34.7302C4.2157 34.913 3.78996 35.1003 3.32482 35.2825L2.59521 33.4204C2.98723 33.2668 3.36938 33.0978 3.76077 32.9248Z" fill="black"/>
<path fill-rule="evenodd" clip-rule="evenodd" d="M4.80064 51.3775C3.79275 51.8196 2.67591 52.3094 1.23596 52.615L0.0527318 52.8661L0.028568 51.6567C0.026193 51.5379 0.0217628 51.4024 0.0170879 51.2594C0.00891763 51.0095 0 50.7368 0 50.49H1.51203C2.39126 50.2467 3.09822 49.937 3.86687 49.6003C4.22541 49.4432 4.59737 49.2803 5.0065 49.1154C6.49911 48.5141 8.22987 48.02 11.0315 48.02C14.5746 48.02 16.3936 48.815 18.1213 49.5746L18.1377 49.5818C19.7476 50.2896 21.2725 50.96 24.4061 50.96C27.5398 50.96 29.0647 50.2896 30.6746 49.5818L30.691 49.5746C32.4187 48.815 34.2377 48.02 37.7808 48.02C41.3238 48.02 43.1431 48.815 44.871 49.5746L44.8874 49.5818C46.4977 50.2896 48.0229 50.96 51.1565 50.96C54.2901 50.96 55.8155 50.2896 57.4262 49.5818L57.4427 49.5745C59.171 48.815 60.9909 48.02 64.5344 48.02C68.078 48.02 69.8968 48.815 71.6241 49.5746L71.6408 49.5819C73.2502 50.2897 74.7745 50.96 77.9079 50.96C81.0415 50.96 82.567 50.2896 84.1776 49.5818L84.1942 49.5745C85.9225 48.815 87.7423 48.02 91.2859 48.02C94.8294 48.02 96.649 48.815 98.3773 49.5745L98.3935 49.5817C100.004 50.2895 101.53 50.96 104.665 50.96C107.185 50.96 108.664 50.5257 109.948 50.0084C110.259 49.8831 110.573 49.745 110.9 49.6019C111.91 49.1592 113.029 48.6685 114.473 48.3627L114.887 50.3193C113.661 50.5791 112.795 50.9582 111.833 51.3795C111.475 51.5363 111.103 51.699 110.695 51.8635C109.201 52.4654 107.469 52.96 104.665 52.96C101.121 52.96 99.301 52.1651 97.5726 51.4055L97.556 51.3982C95.9454 50.6904 94.42 50.02 91.2859 50.02C88.1515 50.02 86.6257 50.6905 85.015 51.3984L84.9988 51.4055C83.2705 52.165 81.451 52.96 77.9079 52.96C74.3649 52.96 72.5463 52.165 70.819 51.4054L70.8028 51.3983C69.1933 50.6905 67.6687 50.02 64.5344 50.02C61.4 50.02 59.8743 50.6905 58.2636 51.3984L58.2474 51.4055C56.5191 52.165 54.6995 52.96 51.1565 52.96C47.6135 52.96 45.7942 52.165 44.0662 51.4055L44.0498 51.3983C42.4396 50.6905 40.9144 50.02 37.7808 50.02C34.6472 50.02 33.1223 50.6904 31.5124 51.3982L31.4959 51.4055C29.7682 52.165 27.9492 52.96 24.4061 52.96C20.8631 52.96 19.044 52.165 17.3164 51.4055L17.2999 51.3982C15.69 50.6904 14.1651 50.02 11.0315 50.02C8.51408 50.02 7.03648 50.4538 5.7539 50.9705C5.44273 51.0959 5.12741 51.2342 4.80064 51.3775Z" fill="black"/>
</svg>
